<svg width="39" height="77" viewBox="0 0 39 77" fill="none" xmlns="http://www.w3.org/2000/svg">
<path d="M31.7433 1.86685C24.4935 13.0055 22.3712 26.2488 24.5129 39.3913C25.2506 43.9175 26.8205 48.8984 29.3793 52.7738C30.5394 54.5312 33.1216 57.4726 35.4318 56.9514C39.2674 56.0865 36.3888 50.376 35.2435 48.3782C33.1731 44.767 26.3188 42.6249 22.6989 44.8481C15.9793 48.9751 11.6176 58.3237 8.10557 65.0831C6.70336 67.782 5.81989 70.8426 4.31968 73.441C3.73762 74.4491 6.40947 72.7433 6.96517 72.5627C10.2447 71.4962 10.2752 71.3575 6.93425 73.0792C6.47151 73.3178 3.36466 75.2359 3.10324 75.085C2.92078 74.9796 2.1678 68.2312 1.8769 67.4865" stroke="white" stroke-width="2" stroke-linecap="round"/>
</svg>
