<svg width="70" height="62" viewBox="0 0 70 62" fill="none" xmlns="http://www.w3.org/2000/svg">
<path d="M44.084 59.893C53.5363 48.1033 80.417 21.391 63.5722 4.63458C53.8621 -5.02418 43.9525 6.75622 38.9842 14.5992C36.7255 18.1648 34.9039 21.8112 33.0193 25.5603C32.3725 26.8471 31.6172 30.6518 30.9704 29.365C29.9842 27.4032 30.462 23.5231 29.741 21.2121C28.7436 18.0153 27.2114 15.1851 25.051 12.6063C21.1643 7.96676 11.8653 -0.286667 5.15305 4.90638C-3.49776 11.5991 3.37532 30.7047 7.70287 38.3785C11.367 44.8759 16.1978 51.7202 21.4995 56.9941C22.13 57.6214 26.3971 62.7144 24.7778 59.0323C23.4478 56.0081 21.9548 52.3332 21.9548 48.9772C21.9548 45.6957 24.8531 54.8749 26.4171 57.7641C29.5057 63.4701 20.4894 59.893 17.0372 59.893" stroke="white" stroke-width="2" stroke-linecap="round"/>
</svg>
