<svg width="48" height="71" viewBox="0 0 48 71" fill="none" xmlns="http://www.w3.org/2000/svg">
<path d="M44.3668 67.4066L44.5466 66.9401L44.5466 66.9401L44.3668 67.4066ZM47.2545 68.8985C47.507 68.7865 47.6208 68.4911 47.5088 68.2387L45.6841 64.1253C45.5721 63.8728 45.2767 63.759 45.0243 63.871C44.7718 63.9829 44.658 64.2783 44.77 64.5308L46.392 68.1871L42.7356 69.8092C42.4832 69.9211 42.3693 70.2165 42.4813 70.469C42.5933 70.7214 42.8887 70.8352 43.1411 70.7232L47.2545 68.8985ZM2.0509 1.4673C2.06511 1.19152 1.85308 0.956439 1.5773 0.942224C1.30152 0.928008 1.06644 1.14005 1.05222 1.41582L2.0509 1.4673ZM0.991105 2.9288C0.983031 3.20483 1.20025 3.43513 1.47627 3.44321C1.7523 3.45128 1.9826 3.23406 1.99068 2.95804L0.991105 2.9288ZM1.96996 5.93671C1.96572 5.6606 1.73845 5.4402 1.46234 5.44444C1.18623 5.44869 0.965837 5.67596 0.970078 5.95206L1.96996 5.93671ZM1.08411 8.97316C1.1007 9.24881 1.3376 9.45881 1.61324 9.44222C1.88888 9.42563 2.09889 9.18873 2.0823 8.91309L1.08411 8.97316ZM2.32783 11.8813C2.2989 11.6067 2.05282 11.4075 1.77819 11.4364C1.50357 11.4653 1.3044 11.7114 1.33333 11.986L2.32783 11.8813ZM1.71758 14.9852C1.75881 15.2583 2.01359 15.4462 2.28663 15.4049C2.55968 15.3637 2.7476 15.1089 2.70637 14.8359L1.71758 14.9852ZM3.21737 17.7712C3.16391 17.5003 2.90095 17.324 2.63003 17.3774C2.35911 17.4309 2.18283 17.6939 2.2363 17.9648L3.21737 17.7712ZM2.88832 20.9178C2.95391 21.186 3.22452 21.3503 3.49276 21.2847C3.76101 21.2191 3.92529 20.9485 3.85971 20.6803L2.88832 20.9178ZM4.63202 23.5574C4.55446 23.2924 4.27674 23.1404 4.01171 23.218C3.74668 23.2955 3.59471 23.5732 3.67227 23.8383L4.63202 23.5574ZM4.58647 26.7205C4.67584 26.9817 4.9601 27.1211 5.22138 27.0317C5.48266 26.9424 5.62202 26.6581 5.53265 26.3968L4.58647 26.7205ZM6.55967 29.1929C6.45867 28.9359 6.16845 28.8095 5.91144 28.9104C5.65443 29.0114 5.52795 29.3017 5.62894 29.5587L6.55967 29.1929ZM6.79749 32.3473C6.90989 32.5995 7.20548 32.7129 7.45772 32.6005C7.70995 32.4881 7.8233 32.1925 7.71091 31.9403L6.79749 32.3473ZM8.98407 34.6336C8.8605 34.3866 8.56014 34.2866 8.31318 34.4102C8.06623 34.5337 7.96621 34.8341 8.08978 35.0811L8.98407 34.6336ZM9.50304 37.7543C9.63753 37.9955 9.94206 38.082 10.1832 37.9475C10.4244 37.813 10.5109 37.5085 10.3764 37.2673L9.50304 37.7543ZM11.8851 39.8361C11.7399 39.6012 11.4318 39.5284 11.1969 39.6735C10.962 39.8186 10.8892 40.1267 11.0343 40.3617L11.8851 39.8361ZM12.6805 42.898C12.836 43.1262 13.147 43.1851 13.3752 43.0297C13.6035 42.8742 13.6624 42.5631 13.5069 42.3349L12.6805 42.898ZM15.2388 44.7588C15.0733 44.5377 14.76 44.4927 14.5389 44.6583C14.3179 44.8238 14.2729 45.1372 14.4384 45.3582L15.2388 44.7588ZM16.3046 47.7375C16.4798 47.9509 16.7949 47.9819 17.0083 47.8066C17.2217 47.6314 17.2526 47.3163 17.0774 47.1029L16.3046 47.7375ZM19.0189 49.3624C18.8343 49.1571 18.5182 49.1402 18.3128 49.3248C18.1075 49.5095 18.0906 49.8256 18.2752 50.0309L19.0189 49.3624ZM20.3464 52.2337C20.54 52.4306 20.8566 52.4333 21.0535 52.2397C21.2504 52.046 21.253 51.7295 21.0594 51.5326L20.3464 52.2337ZM23.1951 53.6091C22.9928 53.4211 22.6764 53.4326 22.4884 53.6349C22.3004 53.8371 22.3119 54.1535 22.5142 54.3415L23.1951 53.6091ZM24.7744 56.3501C24.9849 56.5289 25.3004 56.5031 25.4792 56.2927C25.6579 56.0822 25.6322 55.7666 25.4217 55.5879L24.7744 56.3501ZM27.7351 57.4648C27.5168 57.2957 27.2027 57.3355 27.0336 57.5538C26.8645 57.7721 26.9043 58.0862 27.1226 58.2553L27.7351 57.4648ZM29.5542 60.0532C29.7799 60.2124 30.0918 60.1584 30.251 59.9328C30.4101 59.7071 30.3562 59.3951 30.1305 59.236L29.5542 60.0532ZM32.6034 60.8979C32.3708 60.7491 32.0616 60.817 31.9127 61.0496C31.7639 61.2822 31.8318 61.5914 32.0644 61.7402L32.6034 60.8979ZM34.6472 63.3124C34.8862 63.4506 35.1921 63.3689 35.3303 63.1299C35.4686 62.8908 35.3869 62.585 35.1478 62.4467L34.6472 63.3124ZM37.7588 63.8796C37.5138 63.7522 37.212 63.8475 37.0846 64.0925C36.9572 64.3375 37.0525 64.6394 37.2975 64.7668L37.7588 63.8796ZM40.0104 66.1011C40.2609 66.2174 40.5582 66.1087 40.6745 65.8582C40.7908 65.6077 40.682 65.3104 40.4316 65.1941L40.0104 66.1011ZM43.1606 66.3881C42.9052 66.283 42.613 66.405 42.508 66.6603C42.403 66.9157 42.5249 67.2079 42.7803 67.3129L43.1606 66.3881ZM44.8582 68.1319C45.1159 68.2312 45.4053 68.1028 45.5046 67.8451C45.6039 67.5875 45.4755 67.2981 45.2179 67.1988L44.8582 68.1319ZM46.5604 67.7162C46.3027 67.6169 46.0133 67.7452 45.914 68.0029C45.8147 68.2606 45.9431 68.55 46.2007 68.6493L46.5604 67.7162ZM1.05222 1.41582C1.02619 1.92087 1.00583 2.42522 0.991105 2.9288L1.99068 2.95804C2.00519 2.46187 2.02525 1.96493 2.0509 1.4673L1.05222 1.41582ZM0.970078 5.95206C0.985608 6.96305 1.02375 7.97028 1.08411 8.97316L2.0823 8.91309C2.02284 7.92507 1.98526 6.93274 1.96996 5.93671L0.970078 5.95206ZM1.33333 11.986C1.43921 12.991 1.56743 13.991 1.71758 14.9852L2.70637 14.8359C2.55845 13.8564 2.43214 12.8714 2.32783 11.8813L1.33333 11.986ZM2.2363 17.9648C2.43186 18.9558 2.64934 19.9403 2.88832 20.9178L3.85971 20.6803C3.62428 19.7173 3.41003 18.7474 3.21737 17.7712L2.2363 17.9648ZM3.67227 23.8383C3.95579 24.807 4.26067 25.768 4.58647 26.7205L5.53265 26.3968C5.21167 25.4585 4.91133 24.5118 4.63202 23.5574L3.67227 23.8383ZM5.62894 29.5587C5.99791 30.4976 6.38757 31.4274 6.79749 32.3473L7.71091 31.9403C7.30705 31.034 6.92317 30.118 6.55967 29.1929L5.62894 29.5587ZM8.08978 35.0811C8.54107 35.983 9.0123 36.8743 9.50304 37.7543L10.3764 37.2673C9.89295 36.4003 9.42869 35.5221 8.98407 34.6336L8.08978 35.0811ZM11.0343 40.3617C11.5641 41.2192 12.1129 42.0649 12.6805 42.898L13.5069 42.3349C12.9478 41.5142 12.407 40.681 11.8851 39.8361L11.0343 40.3617ZM14.4384 45.3582C15.0424 46.1648 15.6646 46.9581 16.3046 47.7375L17.0774 47.1029C16.4469 46.335 15.8339 45.5534 15.2388 44.7588L14.4384 45.3582ZM18.2752 50.0309C18.9485 50.7799 19.639 51.5144 20.3464 52.2337L21.0594 51.5326C20.3625 50.8239 19.6822 50.1003 19.0189 49.3624L18.2752 50.0309ZM22.5142 54.3415C23.2515 55.0269 24.005 55.6967 24.7744 56.3501L25.4217 55.5879C24.6638 54.9442 23.9214 54.2844 23.1951 53.6091L22.5142 54.3415ZM27.1226 58.2553C27.9181 58.8716 28.7287 59.4711 29.5542 60.0532L30.1305 59.236C29.3173 58.6625 28.5187 58.0719 27.7351 57.4648L27.1226 58.2553ZM32.0644 61.7402C32.9113 62.2822 33.7724 62.8065 34.6472 63.3124L35.1478 62.4467C34.286 61.9483 33.4377 61.4319 32.6034 60.8979L32.0644 61.7402ZM37.2975 64.7668C38.1889 65.2303 39.0934 65.6753 40.0104 66.1011L40.4316 65.1941C39.5281 64.7746 38.637 64.3362 37.7588 63.8796L37.2975 64.7668ZM42.7803 67.3129C43.2462 67.5045 43.7151 67.6913 44.187 67.8732L44.5466 66.9401C44.0817 66.7609 43.6196 66.5768 43.1606 66.3881L42.7803 67.3129ZM44.187 67.8732L44.8582 68.1319L45.2179 67.1988L44.5466 66.9401L44.187 67.8732ZM46.2007 68.6493L46.872 68.908L47.2316 67.9749L46.5604 67.7162L46.2007 68.6493ZM44.3668 67.4066L44.5466 66.9401L44.5466 66.9401L44.3668 67.4066ZM47.2545 68.8985C47.507 68.7865 47.6208 68.4911 47.5088 68.2387L45.6841 64.1253C45.5721 63.8728 45.2767 63.759 45.0243 63.871C44.7718 63.9829 44.658 64.2783 44.77 64.5308L46.392 68.1871L42.7356 69.8092C42.4832 69.9211 42.3693 70.2165 42.4813 70.469C42.5933 70.7214 42.8887 70.8352 43.1411 70.7232L47.2545 68.8985ZM2.0509 1.4673C2.06511 1.19152 1.85308 0.956439 1.5773 0.942224C1.30152 0.928008 1.06644 1.14005 1.05222 1.41582L2.0509 1.4673ZM0.991105 2.9288C0.983031 3.20483 1.20025 3.43513 1.47627 3.44321C1.7523 3.45128 1.9826 3.23406 1.99068 2.95804L0.991105 2.9288ZM1.96996 5.93671C1.96572 5.6606 1.73845 5.4402 1.46234 5.44444C1.18623 5.44869 0.965837 5.67596 0.970078 5.95206L1.96996 5.93671ZM1.08411 8.97316C1.1007 9.24881 1.3376 9.45881 1.61324 9.44222C1.88888 9.42563 2.09889 9.18873 2.0823 8.91309L1.08411 8.97316ZM2.32783 11.8813C2.2989 11.6067 2.05282 11.4075 1.77819 11.4364C1.50357 11.4653 1.3044 11.7114 1.33333 11.986L2.32783 11.8813ZM1.71758 14.9852C1.75881 15.2583 2.01359 15.4462 2.28663 15.4049C2.55968 15.3637 2.7476 15.1089 2.70637 14.8359L1.71758 14.9852ZM3.21737 17.7712C3.16391 17.5003 2.90095 17.324 2.63003 17.3774C2.35911 17.4309 2.18283 17.6939 2.2363 17.9648L3.21737 17.7712ZM2.88832 20.9178C2.95391 21.186 3.22452 21.3503 3.49276 21.2847C3.76101 21.2191 3.92529 20.9485 3.85971 20.6803L2.88832 20.9178ZM4.63202 23.5574C4.55446 23.2924 4.27674 23.1404 4.01171 23.218C3.74668 23.2955 3.59471 23.5732 3.67227 23.8383L4.63202 23.5574ZM4.58647 26.7205C4.67584 26.9817 4.9601 27.1211 5.22138 27.0317C5.48266 26.9424 5.62202 26.6581 5.53265 26.3968L4.58647 26.7205ZM6.55967 29.1929C6.45867 28.9359 6.16845 28.8095 5.91144 28.9104C5.65443 29.0114 5.52795 29.3017 5.62894 29.5587L6.55967 29.1929ZM6.79749 32.3473C6.90989 32.5995 7.20548 32.7129 7.45772 32.6005C7.70995 32.4881 7.8233 32.1925 7.71091 31.9403L6.79749 32.3473ZM8.98407 34.6336C8.8605 34.3866 8.56014 34.2866 8.31318 34.4102C8.06623 34.5337 7.96621 34.8341 8.08978 35.0811L8.98407 34.6336ZM9.50304 37.7543C9.63753 37.9955 9.94206 38.082 10.1832 37.9475C10.4244 37.813 10.5109 37.5085 10.3764 37.2673L9.50304 37.7543ZM11.8851 39.8361C11.7399 39.6012 11.4318 39.5284 11.1969 39.6735C10.962 39.8186 10.8892 40.1267 11.0343 40.3617L11.8851 39.8361ZM12.6805 42.898C12.836 43.1262 13.147 43.1851 13.3752 43.0297C13.6035 42.8742 13.6624 42.5631 13.5069 42.3349L12.6805 42.898ZM15.2388 44.7588C15.0733 44.5377 14.76 44.4927 14.5389 44.6583C14.3179 44.8238 14.2729 45.1372 14.4384 45.3582L15.2388 44.7588ZM16.3046 47.7375C16.4798 47.9509 16.7949 47.9819 17.0083 47.8066C17.2217 47.6314 17.2526 47.3163 17.0774 47.1029L16.3046 47.7375ZM19.0189 49.3624C18.8343 49.1571 18.5182 49.1402 18.3128 49.3248C18.1075 49.5095 18.0906 49.8256 18.2752 50.0309L19.0189 49.3624ZM20.3464 52.2337C20.54 52.4306 20.8566 52.4333 21.0535 52.2397C21.2504 52.046 21.253 51.7295 21.0594 51.5326L20.3464 52.2337ZM23.1951 53.6091C22.9928 53.4211 22.6764 53.4326 22.4884 53.6349C22.3004 53.8371 22.3119 54.1535 22.5142 54.3415L23.1951 53.6091ZM24.7744 56.3501C24.9849 56.5289 25.3004 56.5031 25.4792 56.2927C25.6579 56.0822 25.6322 55.7666 25.4217 55.5879L24.7744 56.3501ZM27.7351 57.4648C27.5168 57.2957 27.2027 57.3355 27.0336 57.5538C26.8645 57.7721 26.9043 58.0862 27.1226 58.2553L27.7351 57.4648ZM29.5542 60.0532C29.7799 60.2124 30.0918 60.1584 30.251 59.9328C30.4101 59.7071 30.3562 59.3951 30.1305 59.236L29.5542 60.0532ZM32.6034 60.8979C32.3708 60.7491 32.0616 60.817 31.9127 61.0496C31.7639 61.2822 31.8318 61.5914 32.0644 61.7402L32.6034 60.8979ZM34.6472 63.3124C34.8862 63.4506 35.1921 63.3689 35.3303 63.1299C35.4686 62.8908 35.3869 62.585 35.1478 62.4467L34.6472 63.3124ZM37.7588 63.8796C37.5138 63.7522 37.212 63.8475 37.0846 64.0925C36.9572 64.3375 37.0525 64.6394 37.2975 64.7668L37.7588 63.8796ZM40.0104 66.1011C40.2609 66.2174 40.5582 66.1087 40.6745 65.8582C40.7908 65.6077 40.682 65.3104 40.4316 65.1941L40.0104 66.1011ZM43.1606 66.3881C42.9052 66.283 42.613 66.405 42.508 66.6603C42.403 66.9157 42.5249 67.2079 42.7803 67.3129L43.1606 66.3881ZM44.8582 68.1319C45.1159 68.2312 45.4053 68.1028 45.5046 67.8451C45.6039 67.5875 45.4755 67.2981 45.2179 67.1988L44.8582 68.1319ZM46.5604 67.7162C46.3027 67.6169 46.0133 67.7452 45.914 68.0029C45.8147 68.2606 45.9431 68.55 46.2007 68.6493L46.5604 67.7162ZM1.05222 1.41582C1.02619 1.92087 1.00583 2.42522 0.991105 2.9288L1.99068 2.95804C2.00519 2.46187 2.02525 1.96493 2.0509 1.4673L1.05222 1.41582ZM0.970078 5.95206C0.985608 6.96305 1.02375 7.97028 1.08411 8.97316L2.0823 8.91309C2.02284 7.92507 1.98526 6.93274 1.96996 5.93671L0.970078 5.95206ZM1.33333 11.986C1.43921 12.991 1.56743 13.991 1.71758 14.9852L2.70637 14.8359C2.55845 13.8564 2.43214 12.8714 2.32783 11.8813L1.33333 11.986ZM2.2363 17.9648C2.43186 18.9558 2.64934 19.9403 2.88832 20.9178L3.85971 20.6803C3.62428 19.7173 3.41003 18.7474 3.21737 17.7712L2.2363 17.9648ZM3.67227 23.8383C3.95579 24.807 4.26067 25.768 4.58647 26.7205L5.53265 26.3968C5.21167 25.4585 4.91133 24.5118 4.63202 23.5574L3.67227 23.8383ZM5.62894 29.5587C5.99791 30.4976 6.38757 31.4274 6.79749 32.3473L7.71091 31.9403C7.30705 31.034 6.92317 30.118 6.55967 29.1929L5.62894 29.5587ZM8.08978 35.0811C8.54107 35.983 9.0123 36.8743 9.50304 37.7543L10.3764 37.2673C9.89295 36.4003 9.42869 35.5221 8.98407 34.6336L8.08978 35.0811ZM11.0343 40.3617C11.5641 41.2192 12.1129 42.0649 12.6805 42.898L13.5069 42.3349C12.9478 41.5142 12.407 40.681 11.8851 39.8361L11.0343 40.3617ZM14.4384 45.3582C15.0424 46.1648 15.6646 46.9581 16.3046 47.7375L17.0774 47.1029C16.4469 46.335 15.8339 45.5534 15.2388 44.7588L14.4384 45.3582ZM18.2752 50.0309C18.9485 50.7799 19.639 51.5144 20.3464 52.2337L21.0594 51.5326C20.3625 50.8239 19.6822 50.1003 19.0189 49.3624L18.2752 50.0309ZM22.5142 54.3415C23.2515 55.0269 24.005 55.6967 24.7744 56.3501L25.4217 55.5879C24.6638 54.9442 23.9214 54.2844 23.1951 53.6091L22.5142 54.3415ZM27.1226 58.2553C27.9181 58.8716 28.7287 59.4711 29.5542 60.0532L30.1305 59.236C29.3173 58.6625 28.5187 58.0719 27.7351 57.4648L27.1226 58.2553ZM32.0644 61.7402C32.9113 62.2822 33.7724 62.8065 34.6472 63.3124L35.1478 62.4467C34.286 61.9483 33.4377 61.4319 32.6034 60.8979L32.0644 61.7402ZM37.2975 64.7668C38.1889 65.2303 39.0934 65.6753 40.0104 66.1011L40.4316 65.1941C39.5281 64.7746 38.637 64.3362 37.7588 63.8796L37.2975 64.7668ZM42.7803 67.3129C43.2462 67.5045 43.7151 67.6913 44.187 67.8732L44.5466 66.9401C44.0817 66.7609 43.6196 66.5768 43.1606 66.3881L42.7803 67.3129ZM44.187 67.8732L44.8582 68.1319L45.2179 67.1988L44.5466 66.9401L44.187 67.8732ZM46.2007 68.6493L46.872 68.908L47.2316 67.9749L46.5604 67.7162L46.2007 68.6493Z" fill="#FF7B00"/>
</svg>
