<svg width="17" height="16" viewBox="0 0 17 16" fill="none" xmlns="http://www.w3.org/2000/svg">
<g clip-path="url(#clip0_101_1729)">
<path d="M12.5667 0H4.06667C1.9956 0 0.316666 1.67893 0.316666 3.75V12.25C0.316666 14.3211 1.9956 16 4.06667 16H12.5667C14.6377 16 16.3167 14.3211 16.3167 12.25V3.75C16.3167 1.67893 14.6377 0 12.5667 0Z" fill="url(#paint0_radial_101_1729)"/>
<path d="M12.5667 0H4.06667C1.9956 0 0.316666 1.67893 0.316666 3.75V12.25C0.316666 14.3211 1.9956 16 4.06667 16H12.5667C14.6377 16 16.3167 14.3211 16.3167 12.25V3.75C16.3167 1.67893 14.6377 0 12.5667 0Z" fill="url(#paint1_radial_101_1729)"/>
<path d="M8.31723 1.75C6.61985 1.75 6.40679 1.75744 5.74017 1.78775C5.07479 1.81825 4.6206 1.92356 4.22323 2.07812C3.8121 2.23775 3.46342 2.45131 3.11604 2.79881C2.76835 3.14625 2.55479 3.49494 2.39467 3.90587C2.23967 4.30338 2.13423 4.75775 2.10429 5.42281C2.07448 6.0895 2.06667 6.30263 2.06667 8.00006C2.06667 9.6975 2.07417 9.90987 2.10442 10.5765C2.13504 11.2419 2.24035 11.6961 2.39479 12.0934C2.55454 12.5046 2.7681 12.8533 3.1156 13.2006C3.46292 13.5483 3.8116 13.7624 4.22242 13.922C4.6201 14.0766 5.07435 14.1819 5.7396 14.2124C6.40629 14.2427 6.61917 14.2501 8.31648 14.2501C10.014 14.2501 10.2264 14.2427 10.893 14.2124C11.5584 14.1819 12.0131 14.0766 12.4108 13.922C12.8217 13.7624 13.1699 13.5483 13.5172 13.2006C13.8649 12.8533 14.0784 12.5046 14.2385 12.0936C14.3922 11.6961 14.4977 11.2417 14.5289 10.5766C14.5589 9.91 14.5667 9.6975 14.5667 8.00006C14.5667 6.30263 14.5589 6.08962 14.5289 5.42294C14.4977 4.75756 14.3922 4.30344 14.2385 3.90606C14.0784 3.49494 13.8649 3.14625 13.5172 2.79881C13.1695 2.45119 12.8219 2.23762 12.4104 2.07819C12.012 1.92356 11.5575 1.81819 10.8922 1.78775C10.2255 1.75744 10.0132 1.75 8.31529 1.75H8.31723ZM7.75654 2.87631C7.92298 2.87606 8.10867 2.87631 8.31723 2.87631C9.98604 2.87631 10.1838 2.88231 10.8428 2.91225C11.4522 2.94012 11.7829 3.04194 12.0032 3.1275C12.2949 3.24075 12.5029 3.37619 12.7215 3.595C12.9402 3.81375 13.0756 4.02206 13.1892 4.31375C13.2747 4.53375 13.3767 4.8645 13.4044 5.47388C13.4344 6.13275 13.4409 6.33062 13.4409 7.99862C13.4409 9.66663 13.4344 9.86456 13.4044 10.5234C13.3765 11.1327 13.2747 11.4635 13.1892 11.6836C13.0759 11.9753 12.9402 12.1829 12.7215 12.4016C12.5027 12.6203 12.295 12.7557 12.0032 12.869C11.7832 12.9549 11.4522 13.0565 10.8428 13.0844C10.1839 13.1143 9.98604 13.1208 8.31723 13.1208C6.64835 13.1208 6.45054 13.1143 5.79173 13.0844C5.18235 13.0563 4.8516 12.9544 4.6311 12.8689C4.33948 12.7556 4.1311 12.6202 3.91235 12.4014C3.6936 12.1827 3.55823 11.9749 3.44467 11.6831C3.3591 11.463 3.25717 11.1322 3.22942 10.5229C3.19948 9.864 3.19348 9.66613 3.19348 7.99706C3.19348 6.328 3.19948 6.13119 3.22942 5.47231C3.25729 4.86294 3.3591 4.53219 3.44467 4.31187C3.55798 4.02019 3.6936 3.81188 3.91242 3.59313C4.13123 3.37438 4.33948 3.23894 4.63117 3.12544C4.85148 3.0395 5.18235 2.93794 5.79173 2.90994C6.36829 2.88387 6.59173 2.87606 7.75654 2.87475V2.87631ZM11.6535 3.91406C11.2394 3.91406 10.9035 4.24969 10.9035 4.66381C10.9035 5.07788 11.2394 5.41381 11.6535 5.41381C12.0675 5.41381 12.4035 5.07788 12.4035 4.66381C12.4035 4.24975 12.0675 3.91381 11.6535 3.91381V3.91406ZM8.31723 4.79038C6.54473 4.79038 5.1076 6.2275 5.1076 8.00006C5.1076 9.77262 6.54473 11.2091 8.31723 11.2091C10.0898 11.2091 11.5264 9.77262 11.5264 8.00006C11.5264 6.22756 10.0897 4.79038 8.3171 4.79038H8.31723ZM8.31723 5.91669C9.46779 5.91669 10.4006 6.84938 10.4006 8.00006C10.4006 9.15063 9.46779 10.0834 8.31723 10.0834C7.16667 10.0834 6.23392 9.15063 6.23392 8.00006C6.23392 6.84938 7.1666 5.91669 8.31723 5.91669Z" fill="white"/>
</g>
<defs>
<radialGradient id="paint0_radial_101_1729" cx="0" cy="0" r="1" gradientUnits="userSpaceOnUse" gradientTransform="translate(4.56667 17.2323) rotate(-90) scale(15.8572 14.7484)">
<stop stop-color="#FFDD55"/>
<stop offset="0.1" stop-color="#FFDD55"/>
<stop offset="0.5" stop-color="#FF543E"/>
<stop offset="1" stop-color="#C837AB"/>
</radialGradient>
<radialGradient id="paint1_radial_101_1729" cx="0" cy="0" r="1" gradientUnits="userSpaceOnUse" gradientTransform="translate(-2.3634 1.15256) rotate(78.681) scale(7.08825 29.218)">
<stop stop-color="#3771C8"/>
<stop offset="0.128" stop-color="#3771C8"/>
<stop offset="1" stop-color="#6600FF" stop-opacity="0"/>
</radialGradient>
<clipPath id="clip0_101_1729">
<rect width="16" height="16" fill="white" transform="translate(0.316666)"/>
</clipPath>
</defs>
</svg>
