<svg width="29" height="28" viewBox="0 0 29 28" fill="none" xmlns="http://www.w3.org/2000/svg">
<path d="M20.0918 7.17708C20.0918 6.81517 20.2355 6.46809 20.4914 6.21218C20.7473 5.95627 21.0944 5.8125 21.4563 5.8125C21.8182 5.8125 22.1653 5.95627 22.4212 6.21218C22.6772 6.46809 22.8209 6.81517 22.8209 7.17708C22.8209 7.53899 22.6772 7.88608 22.4212 8.14199C22.1653 8.3979 21.8182 8.54167 21.4563 8.54167C21.0944 8.54167 20.7473 8.3979 20.4914 8.14199C20.2355 7.88608 20.0918 7.53899 20.0918 7.17708Z" fill="#75BA30"/>
<path fill-rule="evenodd" clip-rule="evenodd" d="M14.6333 7.51855C12.9143 7.51855 11.2656 8.20145 10.05 9.41702C8.83446 10.6326 8.15157 12.2813 8.15157 14.0003C8.15157 15.7194 8.83446 17.3681 10.05 18.5836C11.2656 19.7992 12.9143 20.4821 14.6333 20.4821C16.3524 20.4821 18.0011 19.7992 19.2166 18.5836C20.4322 17.3681 21.1151 15.7194 21.1151 14.0003C21.1151 12.2813 20.4322 10.6326 19.2166 9.41702C18.0011 8.20145 16.3524 7.51855 14.6333 7.51855ZM10.1984 14.0003C10.1984 12.8241 10.6657 11.6961 11.4974 10.8644C12.3291 10.0327 13.4571 9.56543 14.6333 9.56543C15.8095 9.56543 16.9376 10.0327 17.7693 10.8644C18.601 11.6961 19.0682 12.8241 19.0682 14.0003C19.0682 15.1765 18.601 16.3046 17.7693 17.1363C16.9376 17.968 15.8095 18.4352 14.6333 18.4352C13.4571 18.4352 12.3291 17.968 11.4974 17.1363C10.6657 16.3046 10.1984 15.1765 10.1984 14.0003Z" fill="#75BA30"/>
<path fill-rule="evenodd" clip-rule="evenodd" d="M21.8083 1.49139C17.0396 0.962507 12.227 0.962507 7.45833 1.49139C4.71279 1.79842 2.49534 3.96128 2.1733 6.72047C1.60851 11.5574 1.60851 16.4436 2.1733 21.2806C2.49534 24.0398 4.71143 26.2026 7.45833 26.5097C12.2271 27.0374 17.0395 27.0374 21.8083 26.5097C24.5538 26.2026 26.7713 24.0398 27.0933 21.2806C27.6581 16.4436 27.6581 11.5574 27.0933 6.72047C26.7713 3.96128 24.5552 1.79842 21.8083 1.49139ZM7.68486 3.52462C12.303 3.0125 16.9636 3.0125 21.5818 3.52462C23.3967 3.7293 24.8499 5.16075 25.0615 6.95927C25.6089 11.6375 25.6089 16.3636 25.0615 21.0418C24.9521 21.922 24.5491 22.7396 23.9177 23.3626C23.2863 23.9856 22.4634 24.3775 21.5818 24.4751C16.9636 24.9872 12.303 24.9872 7.68486 24.4751C6.80325 24.3775 5.98029 23.9856 5.3489 23.3626C4.71751 22.7396 4.31457 21.922 4.20517 21.0418C3.65777 16.3636 3.65777 11.6375 4.20517 6.95927C4.31457 6.07906 4.71751 5.26143 5.3489 4.63846C5.98029 4.01549 6.80325 3.62219 7.68486 3.52462Z" fill="#75BA30"/>
</svg>
